<?xml version="1.0" encoding="UTF-8" standalone="no"?>
<!DOCTYPE svg PUBLIC "-//W3C//DTD SVG 1.1//EN" "http://www.w3.org/Graphics/SVG/1.1/DTD/svg11.dtd">
<svg width="100%" height="100%" viewBox="0 0 1080 1080" version="1.1" xmlns="http://www.w3.org/2000/svg" xmlns:xlink="http://www.w3.org/1999/xlink" xml:space="preserve" xmlns:serif="http://www.serif.com/" style="fill-rule:evenodd;clip-rule:evenodd;stroke-linejoin:round;stroke-miterlimit:2;">
    <g id="Layer-1" serif:id="Layer 1">
        <rect x="0" y="0" width="1080" height="1080" style="fill:rgb(0,22,28);"/>
        <g transform="matrix(0.916498,0,0,0.916498,45.0909,45.0909)">
            <g transform="matrix(1,0,0,1,369.082,452.812)">
                <path d="M0,0.742L0.094,-0.371L98.705,233.989C114.911,272.505 152.625,297.554 194.412,297.554L230.918,297.554C240.403,297.554 246.819,287.882 243.131,279.143L21.781,-245.418C8.638,-276.565 -21.881,-296.812 -55.688,-296.812L-63.875,-296.812C-72.052,-296.812 -78.95,-290.722 -79.963,-282.607L-151.103,287.224C-151.788,292.709 -147.511,297.554 -141.983,297.554L-82.44,297.554C-56.513,297.554 -34.645,278.245 -31.433,252.518L0,0.742Z" style="fill:white;fill-rule:nonzero;"/>
            </g>
            <g transform="matrix(1,0,0,1,872.572,924)">
                <path d="M0,-768L-79.36,-768C-93.514,-768 -105.452,-757.459 -107.205,-743.415L-141.191,-471.188L-141.285,-470.075L-248.42,-724.696C-259.461,-750.936 -285.154,-768 -313.622,-768L-380.41,-768C-385.955,-768 -389.706,-762.346 -387.55,-757.237L-174.531,-252.422C-171.804,-245.958 -170.826,-238.891 -171.695,-231.93L-184.648,-128.17C-186.698,-111.753 -200.653,-99.432 -217.198,-99.432L-573.824,-99.432C-625.234,-99.432 -668.597,-61.146 -674.965,-10.132C-675.637,-4.752 -671.441,0 -666.02,0L-157.08,0C-116.081,0 -81.5,-30.532 -76.422,-71.215L-72.898,-99.432L-63.635,-173.635L-63.001,-173.635L9.813,-756.884C10.551,-762.787 5.948,-768 0,-768" style="fill:white;fill-rule:nonzero;"/>
            </g>
        </g>
    </g>
</svg>
